<svg t="1673438487092" class="icon" viewBox="0 0 1024 1024" version="1.1" xmlns="http://www.w3.org/2000/svg" p-id="5403" width="200" height="200"><path d="M687.997921 444.487374 564.400952 444.487374l96.976682-84.408435c8.264221-7.208169 9.145287-19.775392 1.99647-28.067242-7.181563-8.31027-19.675108-9.16473-27.965935-1.989307L511.171634 438.179714 383.767965 329.866846c-8.358365-7.100722-20.871353-6.066159-27.946492 2.325975-7.066953 8.371668-6.04467 20.925588 2.326998 28.02017l99.108229 84.273359L331.319429 444.48635c-10.94733 0-19.809161 8.909927-19.809161 19.891026 0 10.973936 8.862855 19.891026 19.809161 19.891026l158.529573 0 0 258.56594c0 10.987239 8.876158 19.869536 19.822464 19.869536 10.934027 0 19.796882-8.882298 19.796882-19.869536L529.468348 484.261239l158.536736 0c10.960633 0 19.816325-8.909927 19.816325-19.883863C707.821409 453.397301 698.965717 444.487374 687.997921 444.487374L687.997921 444.487374zM511.31285 62.727647c-247.417019 0-448.006524 200.582341-448.006524 447.99936s200.589504 447.993221 448.006524 447.993221c247.409856 0 447.993221-200.576201 447.993221-447.993221S758.722706 62.727647 511.31285 62.727647L511.31285 62.727647zM784.470113 470.281853 528.002974 794.690384c-3.765767 4.733814-9.481955 7.518231-15.519462 7.518231-6.04467 0-11.760858-2.77009-15.513322-7.518231L238.149447 468.156446c-4.969175-6.27389-5.715165-14.921851-1.849114-21.962198l82.626859-150.783145c3.489474-6.341429 10.132778-10.295484 17.368576-10.295484l368.069937 0c7.961322 0 15.142885 4.773723 18.262946 12.136412l64.578808 152.915715C790.030759 456.873472 788.982894 464.599434 784.470113 470.281853L784.470113 470.281853zM796.688389 467.00011" fill="#272636" p-id="5404"></path></svg>