<svg t="1673270997082" class="icon" viewBox="0 0 1024 1024" version="1.1" xmlns="http://www.w3.org/2000/svg" p-id="4105" width="200" height="200"><path d="M903.6 189.2l-302.1-166C545.3-7.7 478.2-7.7 422 23.2l-301.6 166c-59.5 32.6-96.7 95-97 163v319.9c0.4 67.8 37.6 130.1 97 162.7l302.1 166c28.1 15.5 58.9 23.2 89.8 23.2 30.8 0 61.7-7.7 89.8-23.2l301.7-166c59.4-32.6 96.6-94.9 96.9-162.9v-320c-0.4-67.8-37.6-130.2-97.1-162.7zM456.4 85.8c17.3-9.5 36.3-14.3 55.3-14.3s38 4.8 55.3 14.3l302.2 166c7.2 3.9 13.8 8.5 19.8 13.8L512 471.3 134.9 265.6c6-5.2 12.7-9.8 19.9-13.8l301.6-166zM154.7 772.1C118 752 95.1 713.5 94.9 671.9V352.3c0-8.7 1.1-17.2 3-25.5l378.4 206.4v413.4c-6.6-2.2-13.1-5-19.4-8.4L154.7 772.1z m774.4-100.4c-0.2 41.8-23.2 80.3-59.8 100.4l-301.8 166c-6.4 3.5-13 6.4-19.8 8.6V533.2l378.4-206.4c1.9 8.2 2.9 16.7 3 25.3v319.6z" fill="#fff" p-id="4106"></path></svg>